<svg width="175" height="181" viewBox="0 0 175 181" fill="none" xmlns="http://www.w3.org/2000/svg">
<g clip-path="url(#clip0_1990_5054)">
<path d="M153.108 3.68552H21.7629C9.75624 3.68552 0.0229492 13.4007 0.0229492 25.3851V156.486C0.0229492 168.47 9.75624 178.185 21.7629 178.185H153.108C165.114 178.185 174.848 168.47 174.848 156.486V25.3851C174.848 13.4007 165.114 3.68552 153.108 3.68552Z" fill="white"/>
<path d="M94.3203 35.5729C99.9198 41.6188 104.337 48.3833 106.975 56.2306C108.738 61.481 109.417 66.8649 108.682 72.3821C108.373 74.7071 107.859 76.9756 107.01 79.1568C106.692 79.9729 106.414 80.8043 106.054 81.605C104.26 85.6441 101.761 89.2265 98.8195 92.501C95.4258 96.2732 91.5437 99.4861 87.3941 102.386C87.2604 102.483 87.1062 102.545 86.9622 102.617C86.5971 102.417 86.7514 102.088 86.7514 101.826C86.7874 99.6144 86.6331 97.4126 86.2886 95.2211C85.7436 91.7208 84.6329 88.4259 82.7459 85.4029C81.4861 83.3859 80.2675 81.3432 79.0643 79.2903C77.6245 76.8422 76.3288 74.317 75.2695 71.679C74.2617 69.1539 73.5007 66.5569 73.1357 63.8522C72.6729 60.4084 72.9248 57.021 74.0098 53.726C74.6474 51.7758 75.6038 49.964 76.6681 48.2088C76.7247 48.1113 76.8481 48.0497 76.9869 47.9368C77.1412 48.219 76.9201 48.4038 76.8892 48.604C76.843 48.8503 76.7864 49.0967 76.7247 49.3379C75.2901 54.9989 75.8351 60.5007 78.0976 65.8487C79.6813 69.585 82.0157 72.8235 84.8335 75.713C85.3528 76.2468 85.903 76.76 86.7257 77.1244C86.5457 76.6317 86.2166 76.4059 85.9698 76.1185C84.4118 74.3016 83.7331 72.2128 84.1959 69.8468C85.0443 65.4432 88.9161 63.149 92.7468 63.7649C96.9066 64.4321 99.6421 68.3378 98.8966 72.4797C98.7372 73.347 98.4081 74.1579 97.9556 74.9227C97.7293 75.3076 97.5494 75.7182 97.3488 76.1185C97.6317 76.2468 97.7962 75.9953 97.9556 75.8516C98.9171 74.9432 99.5342 73.8295 100.043 72.6234C101.956 68.0864 102.367 63.3595 101.879 58.5197C101.411 53.839 100.146 49.3482 98.4441 44.9754C97.2923 42.014 95.9348 39.1502 94.3974 36.3684C94.2174 36.0451 94.0375 35.7166 93.8472 35.3779C94.1454 35.1777 94.2226 35.46 94.3151 35.5627L94.3203 35.5729Z" fill="#2E3192"/>
<path d="M97.3231 76.1183C97.6316 76.2723 97.7962 76.0106 97.9555 75.8617C98.9119 74.9584 99.5341 73.8396 100.043 72.6335C101.956 68.0965 102.362 63.3696 101.879 58.5298C101.411 53.8439 100.146 49.3583 98.444 44.9855C97.2922 42.0241 95.9399 39.1603 94.3974 36.3837C94.2174 36.0603 94.0374 35.7319 93.8472 35.388C94.1505 35.193 94.2226 35.4753 94.3203 35.5779C99.9146 41.6187 104.332 48.3883 106.969 56.2305C108.733 61.4809 109.417 66.8596 108.682 72.382C108.373 74.7018 107.859 76.9703 107.01 79.1567C106.692 79.9727 106.414 80.8042 106.059 81.6048C104.265 85.644 101.766 89.2264 98.8194 92.5008C95.4309 96.2731 91.5436 99.4859 87.3941 102.386C87.2604 102.478 87.101 102.545 86.9622 102.617C86.5971 102.417 86.7462 102.088 86.7514 101.831C86.7874 99.6143 86.6279 97.4176 86.2886 95.2261C85.7435 91.7258 84.6278 88.4309 82.7407 85.4079C81.4809 83.3909 80.2623 81.3482 79.0591 79.2953C77.6193 76.8471 76.3236 74.322 75.2695 71.684C74.2565 69.1537 73.5007 66.5619 73.1356 63.8572C72.6677 60.4134 72.9248 57.0311 74.0098 53.731C74.6525 51.7859 75.6037 49.969 76.6681 48.2138C76.7298 48.1162 76.8481 48.0547 76.9869 47.9417C77.1463 48.224 76.9201 48.4088 76.8892 48.6089C76.8481 48.8553 76.7864 49.0965 76.7247 49.3429C75.2901 55.0039 75.83 60.5109 78.0975 65.8588C79.6812 69.5951 82.0157 72.8285 84.8334 75.7232C85.3528 76.2569 85.903 76.7702 86.7257 77.1346C86.5405 76.6418 86.2115 76.416 85.9698 76.1337C84.4169 74.3169 83.7382 72.228 84.1907 69.862C85.0443 65.4585 88.911 63.1643 92.7365 63.7802C96.8963 64.4474 99.6369 68.3531 98.8862 72.4949C98.7268 73.3623 98.3978 74.1732 97.9504 74.9328C97.719 75.3228 97.5339 75.7437 97.3283 76.1491C97.2357 76.1902 97.1432 76.2313 97.0506 76.2723C97.0866 76.3185 97.1174 76.3596 97.1534 76.4058L97.3128 76.1183H97.3231Z" fill="#2E3192"/>
<path d="M97.323 76.1185L97.1636 76.4059C97.1276 76.3597 97.0968 76.3187 97.0608 76.2725C97.1533 76.2314 97.2459 76.1904 97.3385 76.1493L97.323 76.1185Z" fill="#2E3192"/>
<path d="M24.1643 134.494C26.1079 126.492 29.3062 119.076 34.3915 112.538C37.7954 108.165 41.909 104.618 46.9172 102.175C49.0254 101.144 51.2055 100.317 53.4937 99.8144C54.3524 99.6297 55.2008 99.3987 56.0646 99.255C60.4301 98.5108 64.8007 98.6032 69.161 99.2345C74.1847 99.9684 79.0181 101.416 83.7332 103.258C83.8874 103.315 84.0263 103.407 84.1651 103.489C84.2011 103.905 83.8411 103.961 83.62 104.1C81.7535 105.296 80.0053 106.64 78.3702 108.144C75.753 110.536 73.6191 113.282 72.1433 116.525C71.1612 118.691 70.1277 120.837 69.0839 122.972C67.8396 125.522 66.4512 128.001 64.8315 130.342C63.2838 132.579 61.5356 134.648 59.484 136.449C56.8668 138.743 53.905 140.406 50.5525 141.33C48.5728 141.879 46.5315 142.09 44.4748 142.177C44.3617 142.182 44.2434 142.115 44.0686 142.064C44.2177 141.777 44.4953 141.859 44.6804 141.777C44.9118 141.679 45.1483 141.592 45.3849 141.505C50.9021 139.559 55.1905 136.064 58.399 131.219C60.6409 127.832 62.0446 124.101 62.8982 120.159C63.0576 119.43 63.181 118.691 63.0267 117.803C62.7182 118.224 62.7131 118.624 62.6051 118.989C61.9521 121.288 60.5844 123.008 58.3579 123.936C54.2135 125.666 50.1566 123.721 48.5472 120.2C46.7989 116.371 48.5472 111.932 52.4087 110.264C53.2211 109.915 54.0798 109.74 54.9642 109.694C55.4064 109.669 55.8538 109.592 56.296 109.54C56.2497 109.232 55.9463 109.237 55.7355 109.181C54.45 108.883 53.1749 108.991 51.8842 109.232C47.0406 110.156 42.8705 112.435 39.1015 115.514C35.4559 118.496 32.4119 122.032 29.7072 125.866C27.8767 128.463 26.2365 131.178 24.771 133.996C24.6013 134.324 24.4265 134.658 24.2465 135.002C23.9174 134.863 24.1077 134.643 24.1385 134.509L24.1643 134.494Z" fill="#FFF200"/>
<path d="M56.3217 109.545C56.2805 109.207 55.972 109.212 55.7561 109.16C54.4706 108.863 53.1954 108.965 51.9048 109.212C47.0611 110.136 42.891 112.414 39.122 115.494C35.4764 118.476 32.4324 122.012 29.7226 125.851C27.8921 128.448 26.2518 131.158 24.7864 133.975C24.6167 134.304 24.4419 134.637 24.2619 134.986C23.9329 134.843 24.1231 134.627 24.1591 134.489C26.1027 126.492 29.301 119.071 34.3863 112.538C37.7902 108.165 41.8987 104.618 46.912 102.17C49.015 101.144 51.1952 100.312 53.4936 99.8093C54.3523 99.6194 55.2007 99.3936 56.0646 99.2448C60.4301 98.5006 64.8007 98.593 69.161 99.2294C74.1846 99.9582 79.0129 101.405 83.7331 103.253C83.8874 103.315 84.0262 103.407 84.1651 103.484C84.2011 103.9 83.8411 103.956 83.6252 104.095C81.7586 105.291 80.0104 106.64 78.3753 108.134C75.7581 110.526 73.6242 113.277 72.1484 116.52C71.1612 118.686 70.1328 120.826 69.089 122.967C67.8395 125.517 66.4564 127.991 64.8367 130.331C63.2889 132.569 61.5407 134.637 59.4891 136.439C56.877 138.733 53.9101 140.396 50.5576 141.32C48.578 141.864 46.5366 142.079 44.485 142.167C44.3719 142.167 44.2536 142.105 44.0788 142.054C44.2228 141.766 44.5056 141.848 44.6907 141.766C44.9169 141.664 45.1535 141.582 45.39 141.494C50.9072 139.549 55.2007 136.054 58.4093 131.204C60.6512 127.822 62.0549 124.09 62.9084 120.144C63.0678 119.42 63.1912 118.676 63.037 117.788C62.7285 118.214 62.7233 118.609 62.6205 118.974C61.9623 121.273 60.5997 122.992 58.3733 123.921C54.2289 125.651 50.172 123.706 48.5677 120.185C46.8194 116.356 48.5625 111.917 52.4293 110.249C53.2417 109.9 54.1004 109.725 54.9848 109.674C55.4373 109.648 55.8897 109.571 56.3422 109.515C56.4296 109.571 56.5119 109.622 56.5993 109.679C56.6199 109.628 56.6353 109.571 56.6559 109.52L56.3268 109.545H56.3217Z" fill="#FFF200"/>
<path d="M56.3217 109.545L56.6507 109.52C56.6302 109.571 56.6147 109.628 56.5942 109.679C56.5067 109.622 56.4245 109.571 56.3371 109.515L56.3217 109.545Z" fill="#FFF200"/>
<path d="M144.968 140.848C137.065 143.193 129.028 144.158 120.811 143.06C115.309 142.321 110.173 140.555 105.54 137.46C103.586 136.157 101.776 134.694 100.187 132.969C99.5958 132.323 98.9684 131.707 98.408 131.035C95.5696 127.642 93.4512 123.824 91.8058 119.743C89.9136 115.037 88.7412 110.146 87.9648 105.147C87.9339 104.988 87.9494 104.818 87.9442 104.659C88.2836 104.418 88.515 104.7 88.7463 104.818C90.7208 105.83 92.7673 106.661 94.8858 107.318C98.2743 108.375 101.725 108.832 105.272 108.478C107.643 108.237 110.018 108.052 112.394 107.877C115.232 107.667 118.071 107.621 120.914 107.841C123.629 108.052 126.298 108.519 128.889 109.386C132.19 110.49 135.121 112.214 137.605 114.642C139.075 116.074 140.284 117.731 141.389 119.461C141.451 119.559 141.451 119.692 141.492 119.867C141.173 119.882 141.101 119.6 140.931 119.482C140.731 119.333 140.536 119.174 140.345 119.009C135.887 115.227 130.704 113.282 124.894 112.948C120.837 112.717 116.898 113.379 113.052 114.626C112.343 114.857 111.638 115.124 110.944 115.699C111.463 115.756 111.813 115.56 112.178 115.468C114.497 114.878 116.677 115.191 118.6 116.649C122.184 119.353 122.539 123.834 120.297 126.99C117.86 130.424 113.14 131.147 109.751 128.653C109.041 128.124 108.455 127.473 107.972 126.734C107.725 126.364 107.437 126.02 107.165 125.661C106.923 125.856 107.077 126.113 107.139 126.323C107.53 127.586 108.26 128.627 109.119 129.618C112.353 133.334 116.42 135.787 120.986 137.491C125.403 139.139 129.995 139.985 134.679 140.396C137.852 140.668 141.024 140.719 144.202 140.57C144.572 140.555 144.947 140.535 145.338 140.514C145.384 140.868 145.096 140.812 144.963 140.853L144.968 140.848Z" fill="#ED1C24"/>
<path d="M107.195 125.635C106.923 125.841 107.082 126.107 107.149 126.318C107.54 127.575 108.27 128.622 109.129 129.613C112.363 133.329 116.43 135.782 120.996 137.486C125.413 139.133 130.005 139.985 134.689 140.391C137.857 140.668 141.034 140.719 144.207 140.565C144.577 140.55 144.952 140.529 145.343 140.509C145.384 140.868 145.102 140.812 144.963 140.848C137.06 143.188 129.023 144.158 120.811 143.06C115.309 142.321 110.173 140.555 105.535 137.46C103.586 136.162 101.771 134.699 100.182 132.969C99.5906 132.323 98.9633 131.707 98.4028 131.035C95.5645 127.642 93.4512 123.824 91.8058 119.743C89.9136 115.042 88.7412 110.146 87.9648 105.147C87.9391 104.983 87.9494 104.818 87.9442 104.659C88.2836 104.418 88.515 104.7 88.7463 104.818C90.7208 105.83 92.7673 106.661 94.8858 107.318C98.2743 108.375 101.725 108.832 105.278 108.478C107.648 108.242 110.024 108.052 112.394 107.877C115.232 107.672 118.071 107.621 120.909 107.841C123.629 108.052 126.298 108.519 128.889 109.386C132.19 110.49 135.121 112.209 137.605 114.637C139.07 116.069 140.284 117.726 141.389 119.451C141.451 119.548 141.451 119.682 141.492 119.856C141.173 119.872 141.101 119.595 140.931 119.471C140.731 119.323 140.536 119.163 140.345 119.004C135.887 115.222 130.699 113.277 124.889 112.943C120.832 112.712 116.893 113.374 113.047 114.621C112.337 114.852 111.633 115.114 110.944 115.694C111.468 115.745 111.813 115.55 112.178 115.458C114.497 114.868 116.677 115.181 118.6 116.638C122.184 119.348 122.539 123.824 120.297 126.98C117.86 130.414 113.14 131.142 109.746 128.643C109.036 128.119 108.455 127.468 107.967 126.728C107.715 126.349 107.422 126 107.149 125.635C107.149 125.533 107.159 125.435 107.165 125.332C107.108 125.343 107.057 125.353 107 125.363L107.185 125.635H107.195Z" fill="#ED1C24"/>
<path d="M107.195 125.635L107.01 125.363C107.067 125.353 107.118 125.343 107.175 125.332C107.175 125.435 107.165 125.533 107.159 125.635H107.195Z" fill="#ED1C24"/>
<path d="M29.0233 133.909C28.9718 133.95 28.9256 133.991 28.8742 134.032C29.2958 135.31 29.7277 136.588 30.1185 137.876C30.1802 138.086 30.1493 138.451 30.0156 138.569C29.5015 139.01 28.9256 139.38 28.3754 139.775C27.7121 140.252 27.0488 140.729 26.2672 141.294C26.6117 141.335 26.8071 141.376 26.9974 141.381C28.108 141.392 29.2238 141.479 30.3242 141.366C31.1777 141.279 31.3783 141.694 31.5685 142.356C31.9182 143.563 32.3346 144.748 32.7203 145.939C32.7871 145.934 32.8591 145.923 32.926 145.918C33.2602 144.866 33.579 143.809 33.9389 142.767C34.4428 141.304 34.4583 141.325 36.0317 141.392C36.9881 141.433 37.9496 141.407 38.9112 141.412C38.9317 141.325 38.9471 141.243 38.9677 141.155C38.0525 140.478 37.1629 139.754 36.2065 139.138C35.4918 138.677 35.3787 138.204 35.6923 137.424C36.1551 136.275 36.479 135.074 36.9367 133.678C36.443 133.996 36.1345 134.17 35.8517 134.376C34.993 134.991 34.1652 135.659 33.2705 136.223C33.0237 136.377 32.4941 136.367 32.2472 136.203C31.368 135.628 30.5556 134.95 29.7071 134.324C29.4963 134.165 29.2495 134.052 29.0233 133.919V133.909Z" fill="#FFF200"/>
<path d="M29.0233 133.909C29.2546 134.042 29.4963 134.16 29.7071 134.314C30.5556 134.94 31.368 135.618 32.2472 136.193C32.4992 136.357 33.0237 136.367 33.2705 136.213C34.1652 135.654 34.993 134.986 35.8517 134.365C36.1397 134.16 36.443 133.981 36.9367 133.667C36.4842 135.063 36.1551 136.264 35.6923 137.414C35.3787 138.194 35.4918 138.666 36.2065 139.128C37.1629 139.749 38.0525 140.468 38.9677 141.145C38.9471 141.233 38.9317 141.315 38.9112 141.402C37.9496 141.402 36.9881 141.422 36.0317 141.381C34.4531 141.315 34.4428 141.294 33.9389 142.757C33.579 143.799 33.2653 144.856 32.926 145.908C32.8591 145.913 32.7871 145.923 32.7203 145.929C32.3295 144.733 31.9182 143.552 31.5685 142.346C31.3783 141.684 31.1777 141.268 30.3242 141.356C29.229 141.469 28.108 141.381 26.9974 141.371C26.802 141.371 26.6117 141.325 26.2672 141.284C27.0488 140.719 27.7121 140.242 28.3754 139.765C28.9256 139.369 29.5015 139 30.0156 138.559C30.1545 138.441 30.1853 138.076 30.1185 137.866C29.7277 136.577 29.2907 135.305 28.8742 134.022C28.9256 133.981 28.9718 133.939 29.0233 133.898V133.909Z" fill="#FFF200"/>
<path d="M143.379 123.562C143.317 123.582 143.261 123.608 143.199 123.629C143.173 124.973 143.163 126.323 143.112 127.668C143.101 127.883 142.952 128.222 142.783 128.289C142.155 128.54 141.487 128.699 140.839 128.894C140.057 129.125 139.276 129.361 138.35 129.639C138.664 129.793 138.834 129.895 139.014 129.962C140.057 130.337 141.086 130.783 142.161 131.04C142.999 131.24 143.05 131.697 143.014 132.379C142.947 133.632 142.952 134.889 142.927 136.141C142.993 136.157 143.06 136.172 143.127 136.187C143.79 135.305 144.438 134.412 145.117 133.544C146.073 132.328 146.079 132.354 147.549 132.928C148.444 133.283 149.359 133.575 150.264 133.893C150.31 133.816 150.357 133.744 150.403 133.667C149.76 132.728 149.159 131.753 148.459 130.855C147.94 130.183 147.986 129.7 148.542 129.064C149.359 128.13 150.058 127.103 150.948 125.933C150.377 126.072 150.028 126.138 149.693 126.236C148.68 126.539 147.678 126.898 146.649 127.134C146.361 127.201 145.873 127.016 145.688 126.78C145.045 125.948 144.5 125.04 143.904 124.173C143.755 123.952 143.564 123.767 143.389 123.562H143.379Z" fill="#FFF200"/>
<path d="M143.379 123.562C143.549 123.762 143.744 123.952 143.893 124.173C144.485 125.045 145.03 125.948 145.678 126.78C145.858 127.016 146.351 127.201 146.639 127.134C147.668 126.898 148.67 126.539 149.683 126.236C150.022 126.133 150.367 126.066 150.938 125.933C150.048 127.103 149.349 128.13 148.531 129.064C147.976 129.7 147.93 130.183 148.449 130.855C149.148 131.753 149.75 132.728 150.393 133.667C150.346 133.744 150.3 133.816 150.254 133.893C149.349 133.575 148.434 133.283 147.539 132.928C146.074 132.348 146.068 132.323 145.107 133.544C144.423 134.412 143.775 135.305 143.117 136.187C143.05 136.172 142.983 136.157 142.916 136.141C142.942 134.889 142.937 133.632 143.004 132.379C143.04 131.691 142.988 131.235 142.15 131.04C141.076 130.783 140.047 130.337 139.003 129.962C138.818 129.895 138.654 129.793 138.34 129.639C139.266 129.361 140.047 129.13 140.829 128.894C141.482 128.699 142.145 128.54 142.772 128.289C142.942 128.222 143.091 127.888 143.101 127.668C143.153 126.323 143.163 124.978 143.189 123.629C143.251 123.608 143.307 123.582 143.369 123.562H143.379Z" fill="#FFF200"/>
<path d="M87.2399 45.8118C87.3016 45.7913 87.3633 45.7708 87.4198 45.7503C87.4764 44.4056 87.5175 43.0609 87.5998 41.7162C87.6152 41.5007 87.7695 41.1671 87.9391 41.1055C88.5767 40.8694 89.2452 40.7257 89.8982 40.5461C90.6849 40.3305 91.4716 40.1149 92.4075 39.8583C92.0989 39.6992 91.9344 39.5914 91.7493 39.5196C90.7158 39.1244 89.6977 38.6471 88.6282 38.3699C87.7952 38.1544 87.754 37.6925 87.8106 37.0099C87.9032 35.7576 87.934 34.5053 87.9854 33.2479C87.9186 33.2325 87.8517 33.2119 87.7849 33.1965C87.101 34.0639 86.4326 34.9415 85.7333 35.7935C84.746 36.9893 84.7409 36.9637 83.2909 36.3529C82.4065 35.9834 81.4963 35.6652 80.6016 35.3265C80.5554 35.3983 80.5091 35.4753 80.4577 35.5471C81.0799 36.5018 81.6609 37.4872 82.3345 38.4059C82.8384 39.0885 82.7818 39.5709 82.2111 40.1919C81.3729 41.1055 80.6479 42.1217 79.7327 43.2662C80.3086 43.143 80.6531 43.0814 80.9976 42.9891C82.0208 42.7119 83.0286 42.3732 84.0622 42.1627C84.3501 42.1012 84.8386 42.3013 85.0134 42.5374C85.6356 43.3842 86.1601 44.3029 86.736 45.1857C86.8799 45.4064 87.065 45.6014 87.2347 45.8067L87.2399 45.8118Z" fill="#FFF200"/>
<path d="M87.2401 45.812C87.0704 45.6068 86.8853 45.4117 86.7413 45.191C86.1654 44.3083 85.6461 43.3896 85.0188 42.5427C84.844 42.3015 84.3555 42.1065 84.0675 42.1681C83.034 42.3785 82.0262 42.7172 81.003 42.9944C80.6636 43.0868 80.3139 43.1484 79.738 43.2715C80.6533 42.1219 81.3783 41.1108 82.2164 40.1973C82.7872 39.5762 82.8437 39.0938 82.3398 38.4112C81.6611 37.4976 81.0801 36.5122 80.4631 35.5525C80.5093 35.4806 80.5556 35.4036 80.607 35.3318C81.5069 35.6705 82.4118 35.9836 83.2963 36.3583C84.7514 36.969 84.7566 36.9947 85.7387 35.7988C86.4431 34.9469 87.1064 34.0692 87.7903 33.2019C87.8571 33.2173 87.9239 33.2378 87.9908 33.2532C87.9342 34.5055 87.9085 35.7629 87.816 37.0152C87.7646 37.7029 87.8057 38.1597 88.6335 38.3753C89.703 38.6524 90.716 39.1297 91.7547 39.5249C91.9346 39.5968 92.1043 39.6994 92.4128 39.8637C91.4822 40.1203 90.6954 40.3358 89.9036 40.5514C89.2454 40.731 88.577 40.8747 87.9445 41.1108C87.7748 41.1724 87.6154 41.506 87.6051 41.7216C87.5229 43.0662 87.4817 44.4109 87.4252 45.7556C87.3635 45.7761 87.3018 45.7966 87.2452 45.8172L87.2401 45.812Z" fill="#FFF200"/>
</g>
<defs>
<clipPath id="clip0_1990_5054">
<rect width="174.825" height="179.632" fill="white" transform="translate(0.0794678 0.653732)"/>
</clipPath>
</defs>
</svg>
